<svg width="368" height="650" viewBox="0 0 368 650" fill="none" xmlns="http://www.w3.org/2000/svg">
<path fill-rule="evenodd" clip-rule="evenodd" d="M367.106 150.911L366.641 154.59L347.205 0.875L345.213 1.00044V155.929L306.645 5.85515L304.685 6.23047L324.267 159.909L267.187 15.7836L265.289 16.4005L303.855 166.62L229.151 30.6621L227.345 31.5128L284.583 175.652L193.334 50.1726L191.65 51.243L266.51 187.209L160.219 74.1584L158.682 75.432L249.925 200.753L130.443 101.983L129.078 103.439L235.357 216.325L104.327 133.328L103.156 134.944L222.798 233.721L82.3536 167.717L81.3931 169.467L212.412 252.457L64.8417 204.513L64.1074 206.369L204.542 272.368L52.1126 243.238L51.6159 245.171L199.187 293.115L44.328 283.253L44.0777 285.234L196.506 314.212L41.6484 323.923V325.919L196.506 335.629L44.0777 364.608L44.3271 366.588L199.187 356.878L51.6168 404.67L52.1117 406.604L204.57 377.62L64.1074 443.632L64.8417 445.488L212.412 397.544L81.3931 480.534L82.3536 482.284L222.798 416.28L103.156 515.057L104.328 516.672L235.357 433.524L129.077 546.562L130.444 548.017L249.925 449.096L158.681 574.569L160.219 575.843L266.5 462.803L191.65 598.598L193.334 599.669L284.583 474.189L227.345 618.329L229.15 619.18L303.855 483.373L265.289 633.441L267.187 634.058L324.269 489.929L304.685 643.771L306.645 644.146L345.213 493.92V649L347.205 649.126L366.641 495.259L367.106 498.942V490.962L366.641 487.28L366.137 491.269L347.213 641.084L346.213 649V641.021V490.025V486.004L345.213 489.899L307.676 636.108L305.677 643.897L306.692 635.92L325.754 486.178L326.264 482.176L324.778 485.927L269.198 626.265L266.257 633.69L268.245 625.955L305.793 479.85L306.794 475.956L304.856 479.479L232.143 611.664L228.274 618.698L231.237 611.237L286.953 470.93L288.441 467.184L286.07 470.444L197.244 592.593L192.526 599.081L196.398 592.055L269.26 459.867L271.205 456.339L268.445 459.274L164.948 569.353L159.49 575.158L164.176 568.714L253.033 446.523L255.405 443.261L252.298 445.833L136.001 542.118L129.806 547.247L135.315 541.388L238.76 431.365L241.52 428.428L238.118 430.588L110.581 511.52L103.792 515.828L109.993 510.709L226.444 414.566L229.551 412.001L225.905 413.715L89.1701 477.975L81.9283 481.379L88.6881 477.097L216.248 396.297L219.656 394.139L215.82 395.385L72.149 442.062L64.5327 444.537L71.7806 441.131L208.518 376.869L212.155 375.159L208.207 375.91L59.784 404.128L51.9249 405.622L59.5355 403.157L203.212 356.625L207.049 355.383L203.024 355.635L52.2536 365.089L44.2645 365.59L52.1286 364.095L200.532 335.881L204.495 335.128L200.469 334.875L49.7004 325.422L41.711 324.921L49.7007 324.42L200.469 314.966L204.495 314.713L200.532 313.96L52.19 285.758L44.2645 284.251L52.3157 284.764L203.023 294.362L207.049 294.618L203.212 293.372L59.5351 246.692L51.9249 244.22L59.7845 245.722L208.193 274.084L212.155 274.841L208.504 273.126L71.7805 208.87L64.5327 205.464L72.149 207.939L215.82 254.616L219.656 255.862L216.248 253.704L88.6879 172.904L81.9283 168.622L89.1701 172.026L225.905 236.286L229.551 238L226.444 235.435L109.952 139.258L103.792 134.173L110.54 138.447L238.118 219.258L241.52 221.413L238.76 218.48L135.315 108.605L129.806 102.754L136 107.874L252.298 204.012L255.405 206.581L253.032 203.322L164.201 81.3138L159.49 74.8434L164.973 80.6746L268.45 190.732L271.205 193.662L269.265 190.139L196.38 57.7615L192.526 50.7607L197.226 57.2243L286.07 179.398L288.441 182.657L286.953 178.912L231.248 38.6323L228.274 31.1437L232.155 38.2055L304.856 170.518L306.794 174.045L305.793 170.147L268.239 23.8722L266.257 16.1518L269.192 23.5625L324.778 163.913L326.264 167.665L325.754 163.661L306.692 14.073L305.677 6.10406L307.676 13.8846L345.213 159.947L346.213 163.838V159.82V8.97227V1.00044L347.213 8.90934L366.137 158.576L366.641 162.562L367.106 158.883V150.911Z" fill="black"/>
<path d="M95.7147 471.096L141.422 496L95.7147 521.104L70.7109 566.71L45.7072 521.104L0.000260592 496L45.7072 471.096L70.7109 425.289L95.7147 471.096Z" fill="#B9FF66"/>
<path d="M217.102 244.565L298.777 289.066L217.102 333.925L172.422 415.422L127.742 333.925L46.0666 289.066L127.742 244.565L172.422 162.711L217.102 244.565Z" fill="#191A23"/>
</svg>
